<mxfile host="app.diagrams.net" agent="Mozilla/5.0 (Windows NT 10.0; Win64; x64) AppleWebKit/537.36 (KHTML, like Gecko) Chrome/131.0.0.0 Safari/537.36" version="25.0.3">
  <diagram name="Page-1" id="gTkp85QRetzTopqyFc_n">
    <mxGraphModel dx="1290" dy="522" grid="1" gridSize="10" guides="1" tooltips="1" connect="1" arrows="1" fold="1" page="1" pageScale="1" pageWidth="850" pageHeight="1100" math="0" shadow="0">
      <root>
        <mxCell id="0" />
        <mxCell id="1" parent="0" />
        <mxCell id="nK_kcqP1LroCIZyWVCHi-1" value="Books" style="rounded=0;whiteSpace=wrap;html=1;" vertex="1" parent="1">
          <mxGeometry x="360" y="220" width="100" height="50" as="geometry" />
        </mxCell>
        <mxCell id="nK_kcqP1LroCIZyWVCHi-3" value="Users" style="rounded=0;whiteSpace=wrap;html=1;" vertex="1" parent="1">
          <mxGeometry x="150" y="220" width="100" height="50" as="geometry" />
        </mxCell>
        <mxCell id="nK_kcqP1LroCIZyWVCHi-4" value="" style="edgeStyle=entityRelationEdgeStyle;fontSize=12;html=1;endArrow=ERoneToMany;rounded=0;exitX=1;exitY=0.5;exitDx=0;exitDy=0;entryX=0;entryY=0.5;entryDx=0;entryDy=0;" edge="1" parent="1" source="nK_kcqP1LroCIZyWVCHi-3" target="nK_kcqP1LroCIZyWVCHi-1">
          <mxGeometry width="100" height="100" relative="1" as="geometry">
            <mxPoint x="370" y="320" as="sourcePoint" />
            <mxPoint x="470" y="220" as="targetPoint" />
            <Array as="points">
              <mxPoint x="300" y="280" />
            </Array>
          </mxGeometry>
        </mxCell>
        <mxCell id="nK_kcqP1LroCIZyWVCHi-16" style="edgeStyle=orthogonalEdgeStyle;rounded=0;orthogonalLoop=1;jettySize=auto;html=1;exitX=0.5;exitY=1;exitDx=0;exitDy=0;entryX=0.5;entryY=0;entryDx=0;entryDy=0;" edge="1" parent="1" source="nK_kcqP1LroCIZyWVCHi-5" target="nK_kcqP1LroCIZyWVCHi-3">
          <mxGeometry relative="1" as="geometry" />
        </mxCell>
        <mxCell id="nK_kcqP1LroCIZyWVCHi-5" value="&lt;u&gt;UserID&lt;/u&gt;" style="ellipse;whiteSpace=wrap;html=1;" vertex="1" parent="1">
          <mxGeometry x="160" y="150" width="80" height="40" as="geometry" />
        </mxCell>
        <mxCell id="nK_kcqP1LroCIZyWVCHi-13" style="edgeStyle=orthogonalEdgeStyle;rounded=0;orthogonalLoop=1;jettySize=auto;html=1;exitX=0.5;exitY=0;exitDx=0;exitDy=0;entryX=0.5;entryY=1;entryDx=0;entryDy=0;" edge="1" parent="1" source="nK_kcqP1LroCIZyWVCHi-6" target="nK_kcqP1LroCIZyWVCHi-3">
          <mxGeometry relative="1" as="geometry" />
        </mxCell>
        <mxCell id="nK_kcqP1LroCIZyWVCHi-6" value="Name" style="ellipse;whiteSpace=wrap;html=1;" vertex="1" parent="1">
          <mxGeometry x="140" y="300" width="80" height="40" as="geometry" />
        </mxCell>
        <mxCell id="nK_kcqP1LroCIZyWVCHi-15" style="edgeStyle=orthogonalEdgeStyle;rounded=0;orthogonalLoop=1;jettySize=auto;html=1;exitX=1;exitY=0.5;exitDx=0;exitDy=0;entryX=0.25;entryY=0;entryDx=0;entryDy=0;" edge="1" parent="1" source="nK_kcqP1LroCIZyWVCHi-7" target="nK_kcqP1LroCIZyWVCHi-3">
          <mxGeometry relative="1" as="geometry" />
        </mxCell>
        <mxCell id="nK_kcqP1LroCIZyWVCHi-7" value="Email" style="ellipse;whiteSpace=wrap;html=1;" vertex="1" parent="1">
          <mxGeometry x="50" y="170" width="80" height="40" as="geometry" />
        </mxCell>
        <mxCell id="nK_kcqP1LroCIZyWVCHi-14" style="edgeStyle=orthogonalEdgeStyle;rounded=0;orthogonalLoop=1;jettySize=auto;html=1;exitX=1;exitY=0.5;exitDx=0;exitDy=0;entryX=0;entryY=0.5;entryDx=0;entryDy=0;" edge="1" parent="1" source="nK_kcqP1LroCIZyWVCHi-8" target="nK_kcqP1LroCIZyWVCHi-3">
          <mxGeometry relative="1" as="geometry" />
        </mxCell>
        <mxCell id="nK_kcqP1LroCIZyWVCHi-8" value="Password" style="ellipse;whiteSpace=wrap;html=1;" vertex="1" parent="1">
          <mxGeometry x="40" y="240" width="80" height="40" as="geometry" />
        </mxCell>
        <mxCell id="nK_kcqP1LroCIZyWVCHi-17" style="edgeStyle=orthogonalEdgeStyle;rounded=0;orthogonalLoop=1;jettySize=auto;html=1;exitX=0.5;exitY=1;exitDx=0;exitDy=0;entryX=0.5;entryY=0;entryDx=0;entryDy=0;" edge="1" parent="1" source="nK_kcqP1LroCIZyWVCHi-9" target="nK_kcqP1LroCIZyWVCHi-1">
          <mxGeometry relative="1" as="geometry" />
        </mxCell>
        <mxCell id="nK_kcqP1LroCIZyWVCHi-9" value="&lt;u&gt;BookID&lt;/u&gt;" style="ellipse;whiteSpace=wrap;html=1;" vertex="1" parent="1">
          <mxGeometry x="385" y="160" width="80" height="40" as="geometry" />
        </mxCell>
        <mxCell id="nK_kcqP1LroCIZyWVCHi-18" style="edgeStyle=orthogonalEdgeStyle;rounded=0;orthogonalLoop=1;jettySize=auto;html=1;exitX=0.5;exitY=1;exitDx=0;exitDy=0;entryX=1;entryY=0.5;entryDx=0;entryDy=0;" edge="1" parent="1" source="nK_kcqP1LroCIZyWVCHi-10" target="nK_kcqP1LroCIZyWVCHi-1">
          <mxGeometry relative="1" as="geometry" />
        </mxCell>
        <mxCell id="nK_kcqP1LroCIZyWVCHi-10" value="Title" style="ellipse;whiteSpace=wrap;html=1;" vertex="1" parent="1">
          <mxGeometry x="490" y="190" width="80" height="40" as="geometry" />
        </mxCell>
        <mxCell id="nK_kcqP1LroCIZyWVCHi-11" value="Author" style="ellipse;whiteSpace=wrap;html=1;" vertex="1" parent="1">
          <mxGeometry x="360" y="300" width="80" height="40" as="geometry" />
        </mxCell>
        <mxCell id="nK_kcqP1LroCIZyWVCHi-19" style="edgeStyle=orthogonalEdgeStyle;rounded=0;orthogonalLoop=1;jettySize=auto;html=1;exitX=0;exitY=0.5;exitDx=0;exitDy=0;entryX=0.75;entryY=1;entryDx=0;entryDy=0;" edge="1" parent="1" source="nK_kcqP1LroCIZyWVCHi-12" target="nK_kcqP1LroCIZyWVCHi-1">
          <mxGeometry relative="1" as="geometry" />
        </mxCell>
        <mxCell id="nK_kcqP1LroCIZyWVCHi-12" value="Avalabiltiy" style="ellipse;whiteSpace=wrap;html=1;" vertex="1" parent="1">
          <mxGeometry x="480" y="290" width="80" height="40" as="geometry" />
        </mxCell>
        <mxCell id="nK_kcqP1LroCIZyWVCHi-20" style="edgeStyle=orthogonalEdgeStyle;rounded=0;orthogonalLoop=1;jettySize=auto;html=1;exitX=0.5;exitY=0;exitDx=0;exitDy=0;entryX=0.42;entryY=1.08;entryDx=0;entryDy=0;entryPerimeter=0;" edge="1" parent="1" source="nK_kcqP1LroCIZyWVCHi-11" target="nK_kcqP1LroCIZyWVCHi-1">
          <mxGeometry relative="1" as="geometry" />
        </mxCell>
      </root>
    </mxGraphModel>
  </diagram>
</mxfile>
